<svg viewBox="0 0 255 57" fill="none" xmlns="http://www.w3.org/2000/svg"><g clip-path="url(#a)" fill="#fff"><path d="M73.686 2.258V0h-15.79v2.258h7.626l-11.6 40.653L42.858 2.258h6.875V0H29.539v2.258h6.23L24.276 42.911 13.212 2.258h6.874V0H0v2.258h5.048L19.978 57h2.579L36.52 7.85l.322-1.827L49.625 57h2.47L67.779 2.258h5.908Zm5.8 11.508s-.107 0 0 0c-8.163 0-12.997 5.055-12.997 14.519v8.066c0 9.357 4.834 14.519 12.997 14.519s12.89-5.055 12.997-14.52v-8.065c-.107-9.357-4.834-14.519-12.997-14.519Zm6.552 26.672c0 7.743-2.148 8.926-6.66 8.926-4.403 0-6.659-1.183-6.659-8.711V24.09c0-7.636 2.256-8.712 6.66-8.712 4.511 0 6.66 1.183 6.66 8.927v16.132Zm67.026-27.317h-2.04L139.96 48.61h-3.437v1.506h10.419v-1.506h-4.941l3.437-10.754h9.452l3.008 10.754h-3.974v1.506h12.567v-1.506h-3.437l-9.99-35.49Zm-7.304 23.23 4.404-14.089h.323l3.866 14.089h-8.593Zm-14.715 12.153V15.379h3.437v-1.505h-9.667L114.61 42.589l-9.667-28.715h-9.56v1.505h3.33v33.125h-3.222v1.505h10.097v-1.505h-4.727V17.1l11.386 34.092h1.611l11.923-33.77v31.082h-3.652v1.505h12.783v-1.505h-3.867c.214-3.872 0 0 0 0Zm54.888-33.125h5.156v23.876l-15.038-25.381h-8.808v1.505h3.115v33.125h-3.115v1.505h9.99v-1.505h-5.264V18.498l19.12 32.264v-.107.107h1.611v-35.49h3.437v-1.506h-10.204v1.613Zm14.071 24.736c-1.933 0-3.437 1.72-3.437 3.872 0 2.15 1.504 3.871 3.437 3.871 1.934 0 3.437-1.72 3.437-3.871s-1.611-3.872-3.437-3.872Zm24.813-19.574c0-.107-.108-.107-.108-.215-.214-.215-.322-.43-.537-.537-.429-.323-1.181-.538-2.148-.538-2.578 0-3.867 1.29-4.941 3.011-.752 1.183-1.504 2.689-2.041 3.55 0-.538-.107-1.506-.752-3.012-.752-2.043-1.504-2.796-1.611-2.796h-6.123v1.505h3.867v23.876h-3.867v1.506h13.964v-1.506h-5.585V28.93c.644-1.506 1.504-3.441 2.9-5.485 1.396-1.72 2.148-2.258 2.9-2.258.322 0 .322 1.613.322 2.366v.43c0 3.441 1.074 4.41 2.256 4.41 1.289 0 2.256-.86 2.256-4.41.214-1.29-.108-2.581-.752-3.442.107 0 0 0 0 0Zm27.068 24.951c-.644 0-.752-.752-.752-.752V20.004h-4.619V40.33c-.107.108-3.007 5.808-7.196 5.808-2.149 0-2.793-1.183-2.793-2.474v-23.66h-8.593v1.505h4.081V41.3s-.214 6.344 6.768 6.344c4.726 0 7.304-4.301 7.841-5.054v.107c-.108 2.474.752 4.087 2.041 4.087h6.444v-1.506l-3.222.215ZM83.138 6.99V1.399c-.107.215-.215.538-.215.645l-2.685 4.948h-.752V.645h.752v4.41c0 .215 0 .645-.107.968.107-.215.214-.646.322-.86l2.47-4.625h.967v6.345l-.752.108ZM90.013 6.99V3.98h-2.686v3.01h-.752V.646h.752v2.689h2.686V.645h.752v6.346h-.752ZM96.78 1.29H95.06v5.7h-.752v-5.7h-1.718V.646h4.296l-.107.646ZM98.606 6.99V.646h3.437l-.107.646H99.25v2.043h2.256v.645H99.25v2.366h2.793v.646h-3.437ZM106.125.645c.537 0 .966 0 1.396.323.752.43.859 1.075.859 1.506 0 .43-.107 1.075-.537 1.505a2.552 2.552 0 0 1-1.504.538h-1.181v2.474h-.752V.645h1.719Zm0 3.227c.644 0 .859-.215.966-.323.215-.215.323-.43.323-.968 0-.43-.108-.753-.323-.968-.322-.215-.752-.322-1.181-.322h-.86v2.58h1.075ZM113.751 6.99V3.98h-2.685v3.01h-.752V.646h.752v2.689h2.685V.645h.752v6.346h-.752ZM117.081 6.99V.646h3.544l-.107.646h-2.685v2.043h2.255v.645h-2.255v2.366h2.792v.646h-3.544ZM125.996 1.29h-1.718v5.7h-.752v-5.7h-1.719V.646h4.297l-.108.646ZM134.697 6.453h.644V8.71h-.752v-1.72h-3.759v1.613h-.752V6.453h.43c.429-.968.751-1.721.751-2.044.215-.968.323-1.935.323-2.688l.107-.968h3.008v5.7Zm-2.471-4.302c0 .323-.107 1.506-.429 2.581-.215.645-.538 1.29-.645 1.72h2.793V1.292h-1.611l-.108.86ZM138.778 2.796c-.107 1.936-.214 3.334-.751 3.872-.323.323-.645.323-.967.43h-.322l-.108-.538h.215c.107 0 .322-.107.322-.107.537-.323.752-1.076.967-4.087l.107-1.506h3.115v6.346h-.752V1.29h-1.611l-.215 1.505ZM147.157 6.99V4.195h-1.074c-.323 0-.538.108-.645.215-.215.216-.322.538-.322.646l-.108.86c0 .215-.107.538-.322.86a.98.98 0 0 1-.752.323l-.537.108-.107-.538h.215c.107 0 .322-.108.322-.108.107-.107.215-.107.322-.43l.322-1.075c.108-.323.215-.538.323-.646.107-.107.322-.215.537-.322-.323 0-.645-.215-.86-.323-.322-.215-.537-.645-.537-1.075 0-.43.215-.968.645-1.29.429-.324.859-.431 1.611-.431h1.611v6.345h-.644v-.322Zm-.86-5.7c-.214 0-.644 0-.859.216-.322.215-.537.537-.537.968 0 .43.322.752.43.86.322.215.752.215 1.074.215h.752V1.291h-.86ZM160.691 1.183l-.322.108c-.108 0-.215.107-.323.107 0 0-.214.108-.214.43l-.215.86c-.108.216-.108.43-.323.646-.107.215-.322.323-.429.323.107 0 .215.107.429.322l.323.646.322 1.29c0 .215.107.323.322.43.108 0 .322.108.43.108h.215l-.108.538-.537-.108c-.429 0-.644-.215-.752-.323-.215-.215-.215-.537-.322-.86l-.215-.968c0-.107-.107-.538-.322-.645-.107-.108-.322-.215-.645-.215h-.644v3.011h-.752V3.979h-.644c-.323 0-.537.108-.645.215-.215.215-.322.538-.322.646l-.215.968c-.107.322-.107.537-.322.86-.108.107-.322.323-.752.323l-.537.107-.108-.538h.215c.108 0 .323-.107.323-.107.214-.108.214-.323.322-.43l.322-1.29c.107-.216.215-.539.322-.646.108-.215.322-.215.43-.323-.215-.107-.322-.215-.43-.323l-.322-.645-.215-.86c-.107-.323-.215-.43-.215-.43-.107-.108-.214-.108-.322-.108l-.322-.107.107-.538h.43c.215 0 .43 0 .644.215.215.215.215.43.323.645l.214.968c0 .108.108.43.323.645.107.108.215.215.644.215h.752V.645h.752v2.689h.752c.322 0 .537-.108.644-.215.215-.215.323-.538.323-.645l.214-.968c0-.215.108-.538.323-.646.215-.215.537-.215.644-.215h.43v.538ZM162.839 6.99V.646h3.545l-.108.646h-2.685v2.043h2.148v.645h-2.148v2.366h2.793v.646h-3.545ZM171.969 6.99V3.98h-2.685v3.01h-.752V.646h.752v2.689h2.685V.645h.752v6.346h-.752ZM182.174 6.453V8.71h-.752v-1.72h-6.123V.645h.752v5.808h1.933V.645h.752v5.808h1.934V.645h.752v5.808h.752ZM188.081 6.99V1.399c0 .215-.215.538-.215.645l-2.685 4.948h-.752V.645h.752v4.41c0 .215 0 .645-.107.968.107-.215.215-.646.322-.86l2.47-4.625h.86v6.345l-.645.108ZM194.956 6.99V3.98h-2.686v3.01h-.752V.646h.752v2.689h2.686V.645h.752v6.346h-.752Z"/></g><defs><clipPath id="a"><path fill="#fff" d="M0 0h255v57H0z"/></clipPath></defs></svg>