<svg viewBox="0 0 3059 374" fill="none" xmlns="http://www.w3.org/2000/svg"><path d="M3059 208.952L3057.12 0 9.164 7.982 0 100.954s886.52 312.723 1159.55 237.595c639.34-176.083 862.32-133.354 862.32-133.354" fill="#056B38"/><path d="M1412.61 303.802c255.4-61.982 434.44-102.833 659.31-91.329v-8.217c-224.87-13.147-403.91 3.287-659.08 65.033-190.09 46.017-261.28 70.199-437.738 70.199-143.093 0-280.313-43.904-364.9-71.842v15.495c84.353 34.278 222.276 90.624 364.9 90.624 176.218.235 247.648-23.947 437.508-69.963z" fill="url(#a)"/><defs><linearGradient id="a" x1="2071.85" y1="287.016" x2="609.944" y2="287.016" gradientUnits="userSpaceOnUse"><stop stop-color="#FBC925"/><stop offset=".006" stop-color="#FBC925"/><stop offset=".039" stop-color="#FCCF44"/><stop offset=".253" stop-color="#FEF8CD"/><stop offset=".283" stop-color="#F8EFBE"/><stop offset=".596" stop-color="#C3922D"/><stop offset=".672" stop-color="#CCA140"/><stop offset=".828" stop-color="#E7CA77"/><stop offset=".871" stop-color="#EED688"/><stop offset=".908" stop-color="#F2DE99"/><stop offset=".983" stop-color="#FCF3C3"/><stop offset="1" stop-color="#FEF8CD"/></linearGradient></defs></svg>